<?xml version="1.0" standalone="no"?>
<!DOCTYPE svg PUBLIC "-//W3C//DTD SVG 1.1//EN" "http://www.w3.org/Graphics/SVG/1.1/DTD/svg11.dtd" >
<svg xmlns="http://www.w3.org/2000/svg">
<metadata>Generated by IcoMoon</metadata>
<defs>
<font id="icomoon" horiz-adv-x="1024">
<font-face units-per-em="1024" ascent="960" descent="-64" />
<missing-glyph horiz-adv-x="1024" />
<glyph unicode="&#x20;" horiz-adv-x="512" d="" />
<glyph unicode="&#xe900;" glyph-name="sword" d="M680.755 427.418l-283.238 283.238-150.221 2.662 2.048-150.835 283.238-283.238-43.315-43.315 46.387-46.387 80.998 80.998 123.904-123.904 72.704 72.704-123.904 123.904 80.998 80.998-46.387 46.387-43.315-43.315zM650.65 396.8l-43.827-43.827-316.621 316.723 92.467-4.915 267.981-267.981z" />
<glyph unicode="&#xe901;" glyph-name="shield" d="M725.197 631.296l-202.957 76.083c-5.12 2.56-12.698 2.56-17.715 0l-202.957-76.083c-10.138-2.56-17.715-12.698-17.715-22.835v-177.664c0-164.966 208.077-271.462 218.214-276.582 2.56-2.56 5.12-2.56 10.138-2.56s7.578 0 10.138 2.56c10.138 5.12 218.214 111.616 218.214 276.582v177.664c0 10.138-7.578 20.275-15.258 22.835v0zM671.846 430.797c0-102.81-123.29-180.429-159.846-203.264-36.557 20.582-159.846 98.202-159.846 203.264v143.872l159.846 59.392 159.846-59.392v-143.872z" />
<glyph unicode="&#xe902;" glyph-name="wand" d="M512.819 390.758l175.309-175.309 35.328 35.328-175.309 175.309-35.328-35.328zM460.493 513.843l-35.328-35.328 53.043-53.043 35.328 35.328-53.043 53.043zM582.861 613.478l-20.787-52.736-20.787 52.736-52.736 20.787 52.736 20.787 20.787 52.736 20.787-52.736 52.736-20.787-52.736-20.787zM325.53 613.478l-20.787-52.736-20.787 52.736-52.736 20.787 52.736 20.787 20.787 52.736 20.787-52.736 52.736-20.787-52.736-20.787zM325.53 368.333l-20.787-52.736-20.787 52.736-52.736 20.787 52.736 20.787 20.787 52.736 20.787-52.736 52.736-20.787-52.736-20.787zM355.84 478.515l104.653 104.653 332.288-332.288-104.653-104.653-332.288 332.288z" />
<glyph unicode="&#xe903;" glyph-name="heart" d="M653.824 713.318c-55.091 0-107.11-24.678-141.824-64.922-34.714 40.141-86.63 64.922-141.824 64.922-97.69 0-173.261-74.138-173.261-169.984 0-117.453 107.11-211.763 269.414-356.966l45.67-40.141 45.67 40.141c162.304 145.306 269.414 239.514 269.414 356.966 0 95.846-75.571 169.984-173.261 169.984v0zM529.51 248.115l-5.734-5.12-11.776-10.342-11.776 10.342-5.734 5.12c-68.71 61.542-128.102 114.688-167.424 162.202-38.093 46.182-55.091 83.968-55.091 122.573 0 30.413 11.469 58.368 32.358 78.848 20.787 20.378 49.152 31.642 79.974 31.642 35.635 0 70.861-16.179 94.208-43.213l33.382-38.707 33.382 38.707c23.347 27.034 58.573 43.213 94.208 43.213 30.822 0 59.187-11.264 79.974-31.642 20.89-20.48 32.358-48.435 32.358-78.848 0-38.605-16.998-76.39-55.091-122.573-39.219-47.514-98.611-100.659-167.322-162.202v0z" />
<glyph unicode="&#xe904;" glyph-name="feet" d="M399.872 194.15l-0.717 1.024c-8.090 11.878-17.306 23.347-27.136 33.792l-3.994 3.379c-3.891 2.765-10.342 6.451-25.6 14.438-21.811 10.547-26.829 15.667-41.677 31.13-3.379 3.482-7.168 7.475-11.059 11.366-6.963 7.578-18.227 10.957-27.853 8.602-10.138-2.355-18.33-10.035-21.299-20.070s-0.41-20.992 7.066-28.877c3.994-4.096 7.475-7.68 10.65-11.059 17.203-17.92 27.648-28.672 57.958-43.315 9.421-5.018 14.234-7.68 16.691-9.114 6.554-7.578 12.8-15.667 18.33-23.45 0.614-1.024 1.331-1.946 2.048-2.867l0.41-0.512c5.427-7.885 14.336-12.493 23.757-12.493h1.843c10.342 0.717 19.558 6.963 24.166 16.384 4.506 9.318 3.789 20.48-2.048 29.286-0.512 0.717-0.922 1.331-1.638 2.355zM682.086 280.371c-6.656 3.277-24.678 20.787-44.646 50.79-25.19 37.888-42.189 77.312-46.592 108.032-10.65 74.957 23.45 157.696 44.646 200.499 7.782 15.872 30.413 73.523 30.413 73.523s-57.958 0-75.571 0h-129.126c-23.654 0-19.149 0-45.056 0 2.97-70.042-55.808-151.552-85.811-182.374-27.034-27.75-55.091-56.525-55.091-106.598 0-36.147 11.469-66.662 33.997-90.522 18.944-20.070 43.315-32.973 63.386-43.622 11.059-5.427 21.811-11.776 32.051-18.944 14.848-13.21 28.058-28.365 39.014-44.954l0.717-1.024c27.443-37.069 58.675-79.155 106.906-79.155h139.674c81.306 0 93.491 45.466 93.491 72.499 0 60.621-67.994 61.645-102.502 61.747zM691.098 204.698h-139.674c-18.842 0-40.448 28.774-60.006 55.194-14.131 21.197-31.13 40.448-50.278 57.037l-1.843 1.434c-12.698 9.011-26.214 17.101-40.038 23.962-40.858 21.606-65.843 37.171-65.843 82.022 0 25.088 12.493 39.014 38.605 65.638 31.232 31.949 73.728 75.571 95.437 164.762h110.797c-24.166-51.2-56.832-139.469-44.851-223.744 5.427-38.502 27.034-89.6 56.218-133.427 18.842-28.262 55.706-75.674 90.726-75.674 12.698 0 38.4 0 46.182-4.403-0.102-5.734-2.253-12.902-35.43-12.902z" />
<glyph unicode="&#xe905;" glyph-name="helmet" d="M538.112 185.037c-8.909 0-12.595 3.277-16.896 7.27-6.349 5.734-10.854 9.933-13.107 77.619-4.71-70.554-8.602-73.318-16.794-79.36-13.312-9.626-16.486-11.981-169.984 50.381l-24.166 9.83 10.342 23.962c27.546 64.102 32.154 84.378 32.154 105.37 0 14.746-2.355 18.227-3.277 19.456-21.094 30.72-31.437 62.157-30.822 93.491v2.765c0 141.619 106.086 178.586 163.123 198.554 10.854 3.789 24.269 8.499 28.058 11.264l15.258 11.366 15.258-11.366c3.584-2.662 16.998-7.066 27.75-10.65 57.139-18.842 163.328-53.965 163.328-199.782v-2.253c0.717-31.334-9.626-62.771-30.72-93.491-0.922-1.331-3.277-4.71-3.277-19.456 0-21.709 5.12-42.701 23.962-108.749l6.144-21.709-20.685-8.909c-101.274-43.418-138.547-55.706-155.853-55.706zM557.875 435.098c0-75.366 0.819-153.6 2.662-192.41 22.63 7.885 58.266 22.118 92.57 36.454-14.541 51.61-19.763 75.059-19.763 101.069 0 21.504 3.686 36.045 12.288 48.538 14.95 21.709 22.221 43.008 21.811 63.386v2.765c0 109.261-74.138 133.837-128.307 151.654-10.24 3.379-19.149 6.349-26.931 9.626-7.68-3.379-16.486-6.451-26.624-10.035-54.272-18.944-128.717-44.954-128.717-150.733v-3.379c-0.512-20.378 6.861-41.677 21.709-63.386 8.602-12.493 12.288-27.034 12.288-48.538 0-27.546-6.144-52.429-26.214-101.478 33.894-13.517 67.789-26.624 90.010-34.611 3.277 41.779 7.68 124.723 10.752 192.102l-45.363 10.65c-21.504 4.403-23.757 20.992-23.859 26.010-0.614 21.504 19.661 26.726 30.515 29.594 2.662 0.717 7.578 1.946 11.776 3.277v39.014l75.674-25.293 75.878 25.19v-39.014c4.096-1.331 9.011-2.56 11.776-3.277 10.854-2.867 31.027-8.090 30.515-29.594-0.102-5.018-2.253-21.606-24.576-26.112l-49.664-11.674z" />
<glyph unicode="&#xe906;" d="M310.477 230.502c-22.323 0-61.030 17.203-61.030 38.4v65.024c0 6.451 5.53 11.674 12.39 11.674h76.902c2.048 0 3.789 1.638 3.789 3.584v159.846c0 1.229 0.614 2.458 1.741 3.277l23.654 16.794c0.922 0.717 1.536 1.741 1.536 2.867s-0.512 2.15-1.536 2.867l-23.654 16.794c-1.024 0.717-1.741 1.946-1.741 3.277v87.654c0 21.094 18.227 38.298 40.55 38.4h322.56c22.323 0 61.030-3.277 61.030-38.4v-93.082c0-2.253-1.946-4.096-4.301-4.096h-84.992c-2.048 0-3.789-1.638-3.789-3.584v-131.789c0-1.126-0.41-2.048-1.229-2.867l-18.534-17.51c-0.717-0.717-1.126-1.536-1.126-2.56s0.41-1.843 1.126-2.56l18.534-17.51c0.819-0.717 1.229-1.741 1.229-2.867v-95.334c0-41.779-48.947-38.298-71.27-38.4v0h-291.84zM382.976 672.666c-17.613 0-32.051-13.619-32.051-30.208v-83.866c0-1.126 0.512-2.15 1.536-2.867l29.082-20.582c1.024-0.717 1.741-1.946 1.741-3.277s-0.614-2.458-1.741-3.277l-29.082-20.582c-0.922-0.717-1.536-1.741-1.536-2.867v-156.058c0-1.946 1.741-3.584 3.789-3.584h203.162c6.758 0 12.39-5.222 12.39-11.674v-65.024c0-16.691 14.336-30.208 32.051-30.208s62.771 0 62.771 30.208v92.16c0 0.922-0.41 1.843-1.126 2.56l-21.811 20.685c-1.638 1.536-1.638 4.198 0 5.734l21.811 20.685c0.717 0.717 1.126 1.536 1.126-48.64v229.376c0 60.109 3.277 68.71 9.318 75.571 0.922 1.024 1.126 2.56 0.512 3.789s-1.946 2.048-3.379 2.048h-288.358zM261.734 337.408c-2.048 0-3.789-1.638-3.789-3.584v-65.024c0-8.090 4.198-14.848 9.421-21.402 4.403-5.53 30.31-8.397 43.11-8.909h257.638c1.434 0 2.765 0.819 3.379 2.048s0.41 2.765-0.512 3.789c-6.042 6.861-9.318 15.462-9.318 24.371v65.024c0 1.946-1.741 3.584-3.789 3.584h-296.243zM705.638 672.666c-17.613 0-32.051-13.619-32.051-30.208v-85.504c0-1.946 1.741-3.584 3.789-3.584h76.902c2.048 0 3.789 1.638 3.789 3.584v85.504c0 30.208-34.816 30.208-52.531 30.208z" />
<glyph unicode="&#xe907;" d="M613.069 204.8c-2.15 0-4.198 0-6.144 0h-4.608s-291.942 0-291.942 0c-30.208 0-86.528 22.016-86.63 63.898v65.024c0 20.582 16.998 37.274 37.99 37.274h55.091v137.83c0 8.909 3.994 17.306 10.854 22.835-6.861 5.632-10.854 14.029-10.854 22.835v87.654c0 35.226 29.696 63.898 66.15 64h322.662c78.234-0.102 86.63-44.749 86.63-64v-93.082c0-16.384-13.414-29.696-29.901-29.696h-63.181v-109.773c0-7.782-3.072-15.258-8.602-20.787v-4.198c5.427-5.53 8.602-13.005 8.602-20.787v-95.334c0-21.811-9.216-35.533-16.896-43.213-19.456-19.251-48.845-20.89-69.222-20.89zM284.365 267.469c5.837-1.434 17.101-2.97 27.034-3.277h224.87c-0.102 1.536-0.205 3.174-0.205 4.71v43.008h-252.621v-43.008s0.205-0.307 0.819-1.331zM376.627 371.2h181.35c20.89 0 37.99-16.691 37.99-37.274v-65.024c0-2.15 2.662-4.608 6.451-4.608 26.010 0 34.406 3.277 37.069 5.222v82.022s-14.95 14.131-14.95 14.131c-5.939 5.632-9.216 13.414-9.216 21.504s3.379 15.872 9.216 21.402l14.95 14.131v168.653c0 25.19 0.512 42.803 1.946 55.808h-258.355c-3.789 0-6.451-2.458-6.451-4.608v-72.397l19.763-14.029c7.782-5.53 12.493-14.541 12.493-24.166s-4.71-18.637-12.493-24.166l-19.763-14.029v-122.573zM281.395 268.39v0zM699.187 578.867h33.28v63.488c0 1.229-0.205 1.741-0.205 1.741-2.253 1.741-11.366 2.97-26.726 2.97-3.789 0-6.451-2.458-6.451-4.608v-63.488z" />
<glyph unicode="&#xe908;" d="M478.925 439.91c0 3.789 0.717 7.373 2.15 10.752s3.379 6.349 5.837 8.806c2.56 2.56 5.427 4.506 8.806 5.837 3.379 1.434 6.963 2.15 10.752 2.15s7.373-0.717 10.752-2.15c3.379-1.434 6.349-3.379 8.806-5.837 2.56-2.56 4.506-5.427 5.837-8.806 1.434-3.379 2.15-6.963 2.15-10.752s-0.717-7.373-2.15-10.752c-1.434-3.379-3.379-6.349-5.837-8.806-2.56-2.56-5.427-4.506-8.806-5.837-3.379-1.434-6.963-2.15-10.752-2.15s-7.373 0.717-10.752 2.15c-3.379 1.434-6.349 3.379-8.806 5.837s-4.506 5.427-5.837 8.806c-1.434 3.379-2.15 6.963-2.15 10.752zM484.352 477.594v117.248h44.237v-117.248h-44.237z" />
<glyph unicode="&#xe909;" glyph-name="map" d="M419.226 308.531c-6.861 0-13.414 2.765-18.227 7.68-3.584 3.686-9.421 8.704-16.179 14.541-36.864 32.051-105.574 91.75-120.525 187.699-9.626 61.747 37.786 120.627 105.677 131.277 32.256 5.018 64.614-1.434 90.931-18.33 27.341-17.51 44.954-43.93 49.664-74.445v0c15.565-99.84-33.69-178.483-60.211-220.672-3.584-5.734-6.656-10.65-9.011-14.746-3.994-6.963-10.957-11.674-18.944-12.698-1.126-0.102-2.253-0.205-3.379-0.205zM391.27 600.166c-4.403 0-8.909-0.307-13.414-1.024-40.038-6.246-68.301-38.912-62.976-72.806 11.469-73.83 64.102-122.573 98.611-152.678 23.552 38.195 58.061 101.376 46.592 175.309v0c-2.458 15.872-11.981 29.798-26.726 39.322-12.186 7.885-26.726 11.878-41.984 11.878zM428.749 529.51c0-22.791-18.476-41.267-41.267-41.267s-41.267 18.476-41.267 41.267c0 22.791 18.476 41.267 41.267 41.267s41.267-18.476 41.267-41.267zM563.904 460.948l12.014 26.709c6.519 14.493 23.553 20.957 38.046 14.437l-0.093 0.042c14.493-6.519 20.957-23.553 14.437-38.046l-12.014-26.709c-6.519-14.493-23.553-20.957-38.046-14.437l0.093-0.042c-14.493 6.519-20.957 23.553-14.437 38.046zM574.3 553.981l-10.228 27.442c-5.55 14.891 2.023 31.462 16.914 37.011l-0.096-0.036c14.891 5.55 31.462-2.023 37.011-16.914l10.228-27.442c5.55-14.891-2.023-31.462-16.914-37.011l0.096 0.036c-14.891-5.55-31.462 2.023-37.011 16.914zM510.377 391.489l28.402 7.145c15.412 3.877 31.048-5.474 34.925-20.885l-0.025 0.099c3.877-15.412-5.474-31.048-20.885-34.925l-28.402-7.145c-15.412-3.877-31.048 5.474-34.925 20.885l0.025-0.099c-3.877 15.412 5.474 31.048 20.885 34.925zM643.277 148.173c-2.56 0-5.12 0.307-7.68 1.024l-424.448 109.67c-9.318 2.458-16.998 9.011-20.685 17.92s-3.072 18.944 1.843 27.341l65.229 111.718 53.043-31.027-44.749-76.698 342.221-88.371-15.155 142.848c-1.024 9.421 2.355 18.739 9.114 25.293l104.755 101.581 54.272 130.253-239.718 62.874-37.888-53.555-50.176 35.43 50.176 70.963c7.373 10.445 20.48 15.258 32.87 11.981l294.502-77.312c8.602-2.253 15.77-8.090 19.763-16.077 3.891-7.987 4.198-17.203 0.819-25.395l-70.246-168.653c-1.638-3.891-3.994-7.373-6.963-10.24l-98.611-95.642 18.227-172.032c1.024-10.035-2.867-19.968-10.445-26.522-5.632-4.915-12.8-7.475-20.070-7.475z" />
<glyph unicode="&#xe90a;" d="M429.875 186.982c-14.234 0-28.058 5.325-38.707 14.848-12.902 11.674-19.968 28.467-19.046 45.875l1.536 29.901c0.41 6.861-2.048 13.517-6.656 18.534-4.915 5.427-11.878 8.499-19.149 8.499-0.41 0-0.819 0-1.331 0l-29.901-1.536c-31.846-1.638-59.085 22.835-60.723 54.784-0.922 17.408 6.144 34.304 19.046 45.875l22.221 20.070c10.547 9.523 11.366 25.907 1.843 36.454-0.614 0.614-1.229 1.229-1.843 1.843l-22.221 20.070c-23.552 21.504-25.293 58.061-3.891 81.715 11.571 12.698 28.262 19.661 45.363 18.842l30.003-1.536h1.434c6.349 0 12.39 2.355 17.203 6.656 5.837 5.222 8.909 12.8 8.499 20.582l-1.536 29.901c-1.536 31.949 23.040 59.085 54.989 60.621 0.922 0 1.946 0 2.867 0 16.282 0 31.846-6.963 42.803-19.046l20.070-22.118c9.523-10.547 25.907-11.469 36.454-1.843 0.614 0.614 1.229 1.229 1.843 1.843l20.070 22.221c10.957 12.083 26.522 18.944 42.906 18.944 31.846 0 57.754-25.702 57.754-57.549 0-1.024 0-2.048 0-3.072l-1.536-29.901c-0.307-6.861 2.048-13.517 6.656-18.637 4.915-5.427 11.878-8.499 19.149-8.499h1.331s29.901 1.536 29.901 1.536c1.024 0 2.048 0 3.072 0 31.949 0 57.754-26.010 57.754-57.856 0-16.384-6.963-31.949-19.046-42.906l-22.221-20.070c-10.547-9.523-11.469-25.805-1.946-36.352 0.614-0.717 1.229-1.331 1.946-1.946l22.221-20.070c11.469-10.342 18.227-24.474 19.046-39.936 0.819-15.36-4.506-30.31-14.848-41.677-10.854-12.083-26.419-19.046-42.701-19.046-1.126 0-2.15 0-3.277 0l-29.798 1.536h-1.536c-14.234 0-25.702-11.571-25.6-25.702 0-0.41 0-0.922 0-1.331l1.536-29.901c1.536-31.949-23.142-59.085-55.091-60.621-0.922 0-1.843 0-2.765 0-16.282 0-31.846 6.963-42.701 19.046l-20.070 22.221c-9.523 10.547-25.907 11.366-36.454 1.843-0.614-0.614-1.229-1.229-1.843-1.843l-19.968-22.221c-10.957-12.186-26.624-19.046-42.906-19.046v0zM347.955 336.691c16.384 0 31.949-6.861 42.906-19.046 10.342-11.469 15.667-26.214 14.848-41.677l-1.536-29.901c-0.717-14.234 10.138-26.317 24.371-27.034 0.512 0 0.922 0 1.434 0 7.27 0 14.336 3.072 19.149 8.499l20.070 22.221c10.957 12.186 26.522 19.046 42.906 19.046s32.051-6.963 42.906-19.046l20.070-22.221c4.915-5.427 11.776-8.499 19.251-8.499h1.229c14.234 0.717 25.19 12.8 24.474 27.034l-1.536 29.798c-0.922 17.408 6.042 34.202 18.944 45.875 11.366 10.24 26.317 15.565 41.677 14.848l29.901-1.536h1.434c7.373 0 14.131 2.97 19.046 8.499 9.523 10.547 8.806 26.726-1.741 36.352 0 0 0 0-0.102 0.102l-22.221 20.070c-13.005 11.571-19.968 28.467-18.944 45.875 0.717 15.36 7.578 29.696 18.944 39.936l22.221 20.070c5.837 5.222 8.909 12.698 8.499 20.582-0.717 14.234-12.8 25.088-26.931 24.371 0 0 0 0-0.102 0l-29.901-1.536c-1.946 0-3.891 0-5.837 0-15.36 0.717-29.696 7.578-39.936 18.944-10.342 11.366-15.667 26.317-14.848 41.677l1.536 29.901c0.41 7.68-2.662 15.155-8.397 20.378-10.547 9.523-26.829 8.806-36.454-1.741l-19.968-22.221c-11.674-12.902-28.467-19.866-45.875-18.944-15.36 0.717-29.696 7.578-39.936 18.944l-20.070 22.118c-4.915 5.427-11.878 8.499-19.149 8.499h-1.331c-14.234-0.819-25.19-12.902-24.576-27.136l1.536-29.901c1.741-31.846-22.733-59.085-54.682-60.826-2.048-0.102-3.994-0.102-6.042 0l-29.901 1.536h-1.024c-14.234 0-25.805-11.571-25.805-25.805 0-7.27 3.072-14.131 8.397-19.046l22.221-19.968c12.902-11.571 19.968-28.467 18.944-45.875-0.717-15.36-7.578-29.696-18.944-39.936l-22.221-20.070c-5.734-5.222-8.909-12.698-8.499-20.48 0.717-13.722 12.083-24.576 25.907-24.474h1.229s29.798 1.536 29.798 1.536c1.024 0 1.946 0 2.97 0v0z" />
<glyph unicode="&#xe90b;" d="M429.773 171.622c-18.125 0-35.43 6.656-48.947 18.842-16.486 14.746-25.19 35.942-24.064 58.061l1.536 29.901c0.102 2.765-0.819 5.427-2.662 7.475-2.048 2.253-4.813 3.482-7.68 3.482v0l-30.413-1.536c-19.558-1.024-38.195 5.632-52.736 18.739s-23.040 31.027-24.064 50.586c-1.126 22.118 7.68 43.315 24.064 58.163l22.221 20.070c2.048 1.843 3.277 4.403 3.379 7.27s-0.819 5.427-2.662 7.578c-0.205 0.307-0.512 0.512-0.717 0.717l-22.221 19.968c-29.901 27.238-32.051 73.523-5.018 103.424 14.746 16.179 35.738 24.781 57.446 23.859l31.13-1.536c2.048 0 4.506 0.922 6.451 2.662 2.355 2.15 3.686 5.12 3.482 8.294l-1.536 29.901c-0.922 19.558 5.734 38.298 18.842 52.838s31.13 23.040 50.688 23.962c1.229 0 2.458 0 3.584 0 20.685 0 40.448-8.806 54.17-24.166l20.070-22.118c3.891-4.301 10.547-4.608 14.746-0.819 0.307 0.205 0.512 0.512 0.819 0.819l19.968 22.221c13.926 15.258 33.69 24.064 54.272 24.064h0.102c40.141 0 72.909-32.666 73.011-72.909 0-1.331 0-2.56 0-3.789l-1.536-29.901c-0.102-2.867 0.819-5.427 2.662-7.578 1.946-2.15 4.71-3.379 7.68-3.379h1.126s29.286 1.536 29.286 1.536c1.331 0 2.56 0.102 3.891 0.102 40.346 0 73.114-32.87 73.114-73.318 0-20.685-8.806-40.448-24.166-54.272l-22.221-20.070c-2.048-1.843-3.277-4.403-3.482-7.168-0.102-2.765 0.819-5.427 2.662-7.475 0.205-0.307 0.512-0.512 0.819-0.819l22.221-20.070c14.541-13.107 23.040-31.027 24.064-50.586 1.024-19.251-5.837-38.502-18.739-52.838-13.722-15.258-33.382-24.064-53.965-24.166-1.434 0-2.867 0-4.198 0.102l-30.822 1.536c-2.253 0-4.915-1.126-6.861-3.072s-2.97-4.506-2.97-7.27l1.536-30.515c0.922-19.558-5.837-38.298-18.944-52.838-13.21-14.438-31.13-22.938-50.688-23.859-1.229 0-2.355 0-3.482 0-20.582 0-40.346 8.806-54.17 24.064l-20.070 22.323c-3.891 4.301-10.445 4.608-14.746 0.717-0.205-0.205-0.512-0.512-0.717-0.717l-19.968-22.221c-13.926-15.36-33.69-24.166-54.374-24.166v0zM348.16 320c11.571 0 22.63-4.915 30.413-13.619 7.27-7.987 11.059-18.739 10.547-29.594l-1.536-29.901c-0.717-12.8 4.403-25.088 13.926-33.69 7.782-7.066 17.818-10.957 28.365-10.957v0c11.981 0 23.45 5.12 31.539 14.029l19.968 22.221c0.922 1.024 1.946 2.048 2.97 2.97 16.896 15.258 42.906 13.926 58.163-2.97l20.070-22.221c7.987-8.806 19.456-13.926 31.334-13.926h2.048c11.264 0.614 21.709 5.53 29.389 13.926s11.571 19.251 11.059 30.618l-1.536 29.798c0 0.614 0 1.331 0 2.15 0 10.957 4.198 21.197 11.878 28.979s18.022 12.083 28.979 12.083h1.946s30.208-1.638 30.208-1.638c0.922 0 1.741 0 2.458 0 11.878 0 23.245 5.12 31.232 14.029 7.578 8.294 11.469 19.456 10.854 30.618-0.614 11.366-5.53 21.811-13.926 29.389l-22.221 20.070c-1.024 0.922-2.15 1.946-3.072 3.072-7.373 8.192-11.059 18.637-10.445 29.696 0.614 10.957 5.427 20.992 13.517 28.365l22.221 20.070c8.909 7.987 14.029 19.456 14.029 31.437 0 23.45-19.046 42.496-42.394 42.496-0.819 0-1.536 0-2.355 0l-31.846-1.536c-11.776 0-22.835 4.915-30.618 13.619-7.373 8.090-11.059 18.637-10.547 29.696l1.536 29.901c0 0.717 0 1.536 0 2.253 0 23.245-19.046 42.189-42.291 42.189v0c-11.981 0-23.45-5.12-31.539-13.926l-19.968-22.221c-0.922-1.024-1.946-2.048-2.97-2.97-16.896-15.155-43.008-13.824-58.163 2.97l-20.070 22.118c-7.987 8.909-19.456 14.029-31.437 14.029h-2.15c-11.366-0.614-21.811-5.53-29.389-13.926-7.68-8.397-11.571-19.251-10.957-30.618l1.536-29.798c0.717-12.493-4.301-24.371-13.517-32.768-7.578-6.861-17.306-10.547-27.443-10.547h-1.843s-30.31 1.638-30.31 1.638c-12.493 0.614-24.678-4.506-33.28-13.824-15.667-17.306-14.438-44.237 2.867-60.006l22.118-19.968c1.024-0.922 2.048-1.946 2.97-2.97 15.258-16.794 13.926-42.906-2.867-58.163l-22.221-20.070c-9.523-8.602-14.643-20.89-14.029-33.69 0.614-11.264 5.53-21.709 13.926-29.286s19.149-11.469 30.618-10.854l29.901 1.536s1.229 0 2.253 0zM429.875 203.674c-0.717 0-1.536 0-2.253 0-10.957 0.614-20.992 5.427-28.365 13.517-7.373 8.192-11.059 18.739-10.445 29.696l1.536 29.901c0.512 11.264-3.277 22.118-10.957 30.618-7.987 8.909-19.354 13.926-31.334 13.926h-0.205c-0.717 0-1.536 0-2.253 0l-31.642-1.536c-22.118 0-40.141 17.101-41.37 39.014-0.614 12.493 4.301 24.371 13.517 32.666l22.221 20.070c8.294 7.475 13.414 18.125 13.926 29.286 0.717 12.902-4.403 25.088-13.926 33.69l-22.221 20.070c-8.602 7.885-13.414 18.944-13.517 30.413 0 10.957 4.301 21.299 11.981 29.184s18.125 12.083 29.082 12.083h1.331s30.413-1.536 30.413-1.536c1.434 0 2.97 0 4.403 0 23.347 1.229 41.37 21.299 40.141 44.646l-1.536 29.901c-0.922 22.63 16.486 41.984 39.014 43.213h1.946s0 0 0 0c11.878 0 23.040-4.915 30.822-13.619l20.070-22.118c7.475-8.397 18.125-13.414 29.286-13.926 12.902-0.614 25.088 4.403 33.69 13.926l20.070 22.221c15.258 16.794 41.37 18.125 58.163 2.867 9.114-8.294 14.131-20.173 13.414-32.461l-1.536-29.901c-0.614-11.162 3.379-22.323 10.854-30.515 7.475-8.397 18.227-13.414 29.286-13.926 1.434 0 2.97 0 4.403 0l29.901 1.536c22.528 1.229 42.086-16.384 43.213-38.912 0.614-12.493-4.301-24.371-13.619-32.768l-22.221-20.070c-8.294-7.475-13.414-18.125-13.926-29.286-0.717-12.902 4.403-25.088 13.926-33.69l22.323-20.070c8.294-7.475 13.005-17.613 13.517-28.57s-3.277-21.504-10.65-29.594c-7.885-8.704-18.637-13.517-30.413-13.517h-1.843s-30.31 1.638-30.31 1.638c-11.264 0.512-22.221-3.277-30.618-10.854-9.523-8.602-14.643-20.89-13.926-33.69l1.536-29.901c1.126-22.63-16.384-41.984-39.014-43.11h-1.638s0 0 0 0c-12.186 0-23.040 4.813-30.925 13.517l-20.070 22.221c-7.987 8.909-19.456 14.029-31.539 14.029v0c-11.981 0-23.45-5.12-31.437-13.926l-20.070-22.221c-7.782-8.602-18.944-13.619-30.618-13.619zM348.058 352.051c20.582 0 40.346-8.806 54.17-24.166 13.107-14.438 19.763-33.178 18.739-52.736l-1.536-29.901c-0.102-2.765 0.819-5.427 2.662-7.475s4.403-3.277 7.168-3.379v0c3.584 0 6.349 1.229 8.294 3.379l20.070 22.221c13.824 15.36 33.587 24.064 54.17 24.064v0c20.685 0 40.55-8.806 54.272-24.166l20.070-22.221c2.048-2.253 4.71-3.379 7.782-3.379h0.922c5.325 0.307 9.728 5.222 9.421 10.957l-1.536 29.798c-1.229 22.118 7.578 43.315 24.064 58.061 14.438 13.005 33.382 19.763 52.736 18.739l31.027-1.536c2.56 0 5.222 1.229 7.168 3.482 1.946 2.15 2.867 4.71 2.765 7.475s-1.331 5.325-3.379 7.168l-22.323 20.173c-16.486 14.746-25.293 35.942-24.064 58.061 0.922 19.149 9.728 37.683 24.064 50.586l22.221 20.070c2.458 2.15 3.686 5.12 3.482 8.397-0.307 5.632-5.12 10.035-10.752 9.83l-30.208-1.536c-2.56-0.102-4.915-0.102-7.373 0-19.354 0.922-37.786 9.728-50.688 24.064-12.902 14.234-19.763 33.485-18.739 52.736l1.536 29.901c0.205 3.072-1.126 6.042-3.379 8.192-4.301 3.891-10.854 3.584-14.746-0.717l-19.968-22.118c-14.746-16.384-35.942-25.19-58.061-24.064-19.251 0.922-37.683 9.728-50.586 24.064l-19.968 22.118c-2.048 2.253-4.813 3.482-7.782 3.482h-1.024c-5.12-0.307-9.626-5.325-9.421-11.162l1.536-29.696c2.15-40.243-28.877-74.752-69.222-76.902-2.56-0.102-5.12-0.102-7.578 0l-30.515 1.536c-2.458 0-5.12-1.126-7.066-3.072s-3.072-4.608-3.072-7.373 1.229-5.734 3.379-7.68l22.118-19.968c16.486-14.746 25.19-35.942 24.064-58.061-0.922-19.149-9.728-37.683-24.064-50.586l-22.221-20.070c-2.355-2.15-3.584-5.12-3.482-8.294 0.307-5.53 4.915-9.933 10.445-9.933h1.024s29.286 1.536 29.286 1.536c1.229 0 2.458 0.102 3.686 0.102h0.205z" />
<glyph unicode="&#xe90c;" d="M512 330.957c-61.747 0-112.026 50.278-112.026 112.026s50.278 112.026 112.026 112.026 112.026-50.278 112.026-112.026-50.278-112.026-112.026-112.026zM512 522.957c-44.134 0-79.974-35.84-79.974-79.974s35.84-79.974 79.974-79.974 79.974 35.84 79.974 79.974-35.84 79.974-79.974 79.974z" />
<glyph unicode="&#xe90d;" d="M512 315.597c-70.246 0-127.386 57.139-127.386 127.386s57.139 127.386 127.386 127.386 127.386-57.139 127.386-127.386-57.139-127.386-127.386-127.386zM512 539.648c-53.35 0-96.666-43.315-96.666-96.666s43.315-96.666 96.666-96.666 96.666 43.315 96.666 96.666-43.315 96.666-96.666 96.666zM512 347.546c-52.634 0-95.334 42.803-95.334 95.334s42.803 95.334 95.334 95.334 95.334-42.803 95.334-95.334-42.803-95.334-95.334-95.334zM512 507.597c-35.635 0-64.614-28.979-64.614-64.614s28.979-64.614 64.614-64.614 64.614 28.979 64.614 64.614-28.979 64.614-64.614 64.614z" />
<glyph unicode="&#xe90e;" glyph-name="bag" d="M356.25 410.726c-6.554 0-13.107 2.458-18.125 7.475-14.029 14.029-24.781 28.774-31.949 43.725-6.042 12.8-0.614 28.058 12.083 34.099 12.8 6.042 28.058 0.614 34.099-12.186 4.608-9.626 11.981-19.558 21.811-29.491 10.035-10.035 10.035-26.214 0-36.25-5.018-5.018-11.571-7.475-18.125-7.475zM640.512 410.726c-6.554 0-13.107 2.56-18.125 7.578-9.933 10.035-9.933 26.214 0 36.25 9.933 9.83 17.203 19.763 21.811 29.389 18.944 40.038-14.541 71.475-23.757 79.053l-124.518 58.675-119.603-58.573c-9.011-7.373-42.906-38.912-23.859-79.258 6.042-12.8 0.614-28.058-12.186-34.099s-28.058-0.614-34.099 12.186c-30.72 64.717 10.854 120.218 40.346 142.95l1.843 1.638 147.046 71.987 152.576-71.885 2.048-1.741c29.594-22.733 71.066-78.234 40.346-142.95-7.168-15.053-17.92-29.798-31.949-43.725-5.018-5.018-11.571-7.475-18.022-7.475zM498.381 178.688h-122.368c-25.498 0-49.971 10.035-67.072 27.443-15.36 15.667-23.654 35.942-23.245 57.139 2.97 154.522 17.306 210.534 18.842 216.371 3.789 13.619 17.818 21.709 31.437 17.92s21.606-17.818 17.92-31.437c-0.102-0.512-14.131-53.043-17.101-203.878-0.205-9.421 4.608-16.179 8.602-20.275 7.475-7.68 18.637-12.083 30.515-12.083h122.368c14.131 0 25.6-11.469 25.6-25.6s-11.469-25.6-25.6-25.6zM323.482 543.437l-8.192 24.269c-11.059 32.87-32.973 112.742 1.946 143.36 11.571 10.138 32.768 18.534 67.994 1.331 42.803-20.992 64.614-44.237 66.765-71.168 2.253-29.389-20.787-46.592-23.45-48.435l-20.89-14.746-29.389 41.882 20.992 14.746s1.638 1.946 1.843 2.662v0s-2.56 11.571-38.195 29.082c-5.939 2.97-9.83 4.096-12.083 4.506-4.096-13.005 1.843-52.941 13.21-86.938l8.090-24.269-48.538-16.282zM595.354 255.181s-0.205 0-0.41 0l-190.362 2.56c-13.619 0.205-24.678 11.059-25.19 24.678l-3.482 92.57c-0.307 7.066 2.355 13.824 7.27 18.842 4.813 4.915 11.469 7.68 18.33 7.68 0.102 0 0.307 0 0.41 0l188.621-2.867c13.414-0.205 24.371-10.752 25.19-24.166l5.325-92.16c0.41-7.066-2.15-14.029-7.066-19.149-4.813-5.018-11.469-7.885-18.534-7.885zM429.67 308.634l131.994-1.741s0 0 0 0h6.554s-2.355 40.858-2.355 40.858l-137.83 2.15 1.536-41.267zM495.923 419.328c-14.131 0-25.6 11.469-25.6 25.6v93.798c-0.102 14.131 11.264 25.6 25.498 25.6v0c14.131 0 25.6-11.469 25.6-25.6v-93.798c0.102-14.131-11.264-25.6-25.498-25.6v0zM620.749 178.688h-122.368c-14.131 0-25.6 11.469-25.6 25.6s11.469 25.6 25.6 25.6h122.368c11.878 0 23.040 4.403 30.515 12.083 3.994 4.096 8.806 10.957 8.602 20.378-2.97 150.323-16.896 203.264-17.101 203.776-3.686 13.619 4.301 27.648 17.818 31.437 13.619 3.789 27.648-4.096 31.437-17.613 0.614-2.253 15.872-57.651 18.944-216.576 0.41-21.197-7.885-41.472-23.245-57.139-17.101-17.408-41.472-27.341-67.072-27.341zM653.005 553.984l-48.538 16.282 8.090 24.269c11.366 33.997 17.306 73.933 13.21 86.938-2.253-0.41-6.144-1.536-12.083-4.506-35.738-17.51-38.195-29.082-38.195-29.184 0.102-0.512 1.331-2.15 2.355-2.97l20.89-14.746-30.003-41.472-20.992 14.746c-2.662 1.843-25.702 18.944-23.45 48.435 2.15 26.931 23.962 50.176 66.662 71.168 35.226 17.306 56.422 8.806 67.994-1.331 34.918-30.618 13.005-110.49 1.946-143.36l-8.192-24.269z" />
<glyph unicode="&#xe90f;" glyph-name="coins" d="M512.614 200.806h-278.733c-8.499 0-15.36 6.861-15.36 15.36v92.877c0 8.499 6.861 15.36 15.36 15.36s15.36-6.861 15.36-15.36v-77.517h263.373c8.499 0 15.36-6.861 15.36-15.36s-6.861-15.36-15.36-15.36zM280.371 200.806c-8.499 0-15.36 6.861-15.36 15.36v61.952c0 8.499 6.861 15.36 15.36 15.36s15.36-6.861 15.36-15.36v-61.952c0-8.499-6.861-15.36-15.36-15.36zM326.861 200.806c-8.499 0-15.36 6.861-15.36 15.36v46.49c0 8.499 6.861 15.36 15.36 15.36s15.36-6.861 15.36-15.36v-46.49c0-8.499-6.861-15.36-15.36-15.36zM373.248 200.806c-8.499 0-15.36 6.861-15.36 15.36v61.952c0 8.499 6.861 15.36 15.36 15.36s15.36-6.861 15.36-15.36v-61.952c0-8.499-6.861-15.36-15.36-15.36zM419.738 200.806c-8.499 0-15.36 6.861-15.36 15.36v46.49c0 8.499 6.861 15.36 15.36 15.36s15.36-6.861 15.36-15.36v-46.49c0-8.499-6.861-15.36-15.36-15.36zM466.227 200.806c-8.499 0-15.36 6.861-15.36 15.36v30.925c0 8.499 6.861 15.36 15.36 15.36s15.36-6.861 15.36-15.36v-30.925c0-8.499-6.861-15.36-15.36-15.36zM404.275 293.683h-247.808c-8.499 0-15.36 6.861-15.36 15.36v92.877c0 8.499 6.861 15.36 15.36 15.36h193.536c8.499 0 15.36-6.861 15.36-15.36s-6.861-15.36-15.36-15.36h-178.176v-62.157h232.448c8.499 0 15.36-6.861 15.36-15.36s-6.861-15.36-15.36-15.36zM202.957 293.683c-8.499 0-15.36 6.861-15.36 15.36v61.952c0 8.499 6.861 15.36 15.36 15.36s15.36-6.861 15.36-15.36v-61.952c0-8.499-6.861-15.36-15.36-15.36zM249.344 293.683c-8.499 0-15.36 6.861-15.36 15.36v46.49c0 8.499 6.861 15.36 15.36 15.36s15.36-6.861 15.36-15.36v-46.49c0-8.499-6.861-15.36-15.36-15.36zM295.834 293.683c-8.499 0-15.36 6.861-15.36 15.36v61.952c0 8.499 6.861 15.36 15.36 15.36s15.36-6.861 15.36-15.36v-61.952c0-8.499-6.861-15.36-15.36-15.36zM342.323 293.683c-8.499 0-15.36 6.861-15.36 15.36v46.49c0 8.499 6.861 15.36 15.36 15.36s15.36-6.861 15.36-15.36v-46.49c0-8.499-6.861-15.36-15.36-15.36zM388.813 293.683c-8.499 0-15.36 6.861-15.36 15.36v30.925c0 8.499 6.861 15.36 15.36 15.36s15.36-6.861 15.36-15.36v-30.925c0-8.499-6.861-15.36-15.36-15.36zM365.568 386.56h-154.829c-8.499 0-15.36 6.861-15.36 15.36v92.877c0 8.499 6.861 15.36 15.36 15.36h147.149c8.499 0 15.36-6.861 15.36-15.36s-6.861-15.36-15.36-15.36h-131.789v-62.157h139.469c8.499 0 15.36-6.861 15.36-15.36s-6.861-15.36-15.36-15.36zM257.126 386.56c-8.499 0-15.36 6.861-15.36 15.36v61.952c0 8.499 6.861 15.36 15.36 15.36s15.36-6.861 15.36-15.36v-61.952c0-8.499-6.861-15.36-15.36-15.36zM303.616 386.56c-8.499 0-15.36 6.861-15.36 15.36v46.49c0 8.499 6.861 15.36 15.36 15.36s15.36-6.861 15.36-15.36v-46.49c0-8.499-6.861-15.36-15.36-15.36zM350.003 386.56c-8.499 0-15.36 6.861-15.36 15.36v61.952c0 8.499 6.861 15.36 15.36 15.36s15.36-6.861 15.36-15.36v-61.952c0-8.499-6.861-15.36-15.36-15.36zM357.786 479.539h-170.394c-8.499 0-15.36 6.861-15.36 15.36v92.877c0 8.499 6.861 15.36 15.36 15.36h201.318c8.499 0 15.36-6.861 15.36-15.36s-6.861-15.36-15.36-15.36h-185.958v-62.157h155.034c8.499 0 15.36-6.861 15.36-15.36s-6.861-15.36-15.36-15.36zM233.882 479.539c-8.499 0-15.36 6.861-15.36 15.36v61.952c0 8.499 6.861 15.36 15.36 15.36s15.36-6.861 15.36-15.36v-61.952c0-8.499-6.861-15.36-15.36-15.36zM280.371 479.539c-8.499 0-15.36 6.861-15.36 15.36v46.49c0 8.499 6.861 15.36 15.36 15.36s15.36-6.861 15.36-15.36v-46.49c0-8.499-6.861-15.36-15.36-15.36zM326.861 479.539c-8.499 0-15.36 6.861-15.36 15.36v61.952c0 8.499 6.861 15.36 15.36 15.36s15.36-6.861 15.36-15.36v-61.952c0-8.499-6.861-15.36-15.36-15.36zM636.518 355.635c-34.099 0-61.85 27.75-61.85 61.85 0 8.499 6.861 15.36 15.36 15.36s15.36-6.861 15.36-15.36c0-17.101 13.926-31.13 31.13-31.13s31.13 13.926 31.13 31.13c0 12.8-9.318 18.637-32.256 29.901l-11.162 5.53c-22.016 10.854-49.459 24.371-49.459 57.446s27.75 61.85 61.85 61.85 61.85-27.75 61.85-61.85c0-8.499-6.861-15.36-15.36-15.36s-15.36 6.861-15.36 15.36c0 17.101-13.926 31.13-31.13 31.13s-31.13-13.926-31.13-31.13c0-12.8 9.318-18.637 32.358-29.901l11.162-5.53c22.016-10.854 49.459-24.371 49.459-57.446s-27.75-61.85-61.85-61.85zM636.518 541.491c-8.499 0-15.36 6.861-15.36 15.36v15.462c0 8.499 6.861 15.36 15.36 15.36s15.36-6.861 15.36-15.36v-15.462c0-8.499-6.861-15.36-15.36-15.36zM636.518 340.173c-8.499 0-15.36 6.861-15.36 15.36v15.462c0 8.499 6.861 15.36 15.36 15.36s15.36-6.861 15.36-15.36v-15.462c0-8.499-6.861-15.36-15.36-15.36zM775.885 303.309c-3.994 0-8.090 1.536-11.059 4.71-5.837 6.144-5.632 15.872 0.41 21.709 36.864 35.43 57.242 83.046 57.242 134.144 0 102.502-83.456 185.958-185.958 185.958-35.635 0-70.246-10.138-100.147-29.184-7.168-4.608-16.589-2.458-21.197 4.608-4.608 7.168-2.458 16.691 4.608 21.197 34.816 22.323 75.162 34.099 116.736 34.099 119.501 0 216.678-97.178 216.678-216.678 0-59.597-23.654-115.098-66.662-156.365-2.97-2.867-6.861-4.301-10.65-4.301zM636.518 247.194c-119.501 0-216.678 97.178-216.678 216.678 0 59.597 23.654 115.098 66.662 156.365 6.144 5.837 15.872 5.734 21.709-0.41s5.632-15.872-0.41-21.709c-36.864-35.43-57.242-83.046-57.242-134.144 0-102.502 83.456-185.958 185.958-185.958 35.635 0 70.246 10.138 100.147 29.184 7.168 4.608 16.691 2.458 21.197-4.608 4.608-7.168 2.458-16.589-4.608-21.197-34.816-22.323-75.162-34.099-116.736-34.099zM636.518 200.806c-145.101 0-263.168 118.067-263.168 263.168s118.067 263.168 263.168 263.168 263.168-118.067 263.168-263.168-118.067-263.168-263.168-263.168zM636.518 696.32c-128.205 0-232.448-104.243-232.448-232.448s104.243-232.448 232.448-232.448 232.448 104.243 232.448 232.448-104.243 232.448-232.448 232.448z" />
<glyph unicode="&#xe910;" glyph-name="squest" d="M435.405 255.078c0 19.558 5.222 34.406 15.77 44.442s25.805 15.053 45.875 15.053 34.304-5.12 44.954-15.36c10.65-10.24 15.974-35.226 15.974-54.374s-5.325-22.733-16.077-33.382c-10.752-10.65-25.702-15.974-44.851-15.974s-34.816 5.222-45.466 15.565c-10.752 10.342-16.077 24.986-16.077 43.93zM529.818 374.784h-64.922l-17.818 341.914h100.659l-17.818-341.914zM559.002 639.898v-73.728l89.088-89.19-90.010-90.010v-75.264l169.574 169.574-168.653 158.618zM427.725 636.621v-73.728l-89.19-89.19 90.112-90.112v-75.162l-169.677 169.574 168.755 158.618z" />
<glyph unicode="&#xe911;" glyph-name="fquest" d="M447.795 379.597v25.088c0 21.709 3.994 40.55 11.981 56.627s22.63 33.178 43.93 51.2c20.48 16.998 33.997 30.72 40.55 41.37s9.83 22.528 9.83 35.635c0 14.746-4.71 25.907-14.029 33.587s-22.426 11.571-39.219 11.571c-29.286 0-72.909-11.059-110.387-33.28l-1.229 84.582c43.52 28.262 69.222 32.154 117.965 32.154 40.243 0 72.192-11.162 95.846-33.587s35.533-52.224 35.533-89.6c0-24.883-4.915-46.387-14.643-64.512s-28.262-38.502-55.603-61.030c-18.739-16.077-30.618-28.262-35.533-36.659-5.018-8.397-7.475-19.354-7.475-32.87v-20.378h-77.619zM428.134 258.15c0 21.197 4.813 25.805 14.541 36.557 9.728 10.854 23.859 16.282 42.496 16.282s31.846-5.53 41.677-16.589c9.83-11.059 14.746-15.565 14.746-36.25s-5.018-35.635-14.95-47.104c-9.933-11.469-23.757-17.203-41.472-17.203s-32.154 5.632-42.086 16.794c-9.933 11.162-14.95 27.034-14.95 47.411zM629.965 491.93l23.654-23.654-90.112-90.112v-75.264l169.677 169.677-68.813 64.614-34.406-45.261zM376.73 601.498v-73.83l-53.146-52.429 90.010-90.112v-75.264l-169.574 169.677 132.71 121.958z" />
<glyph unicode="&#xe912;" glyph-name="armor" d="M432.538 692.531l-5.837-4.403-28.467-18.944c-96.256-4.301-140.186-82.534-140.186-82.534l-8.806-16.077 13.824-12.39c2.355-2.048 4.301-4.403 6.554-6.554-16.077-20.787-37.99-58.368-37.99-108.749v-9.523l6.554-6.554s10.854-11.264 29.184-20.48c14.438-7.168 34.714-13.517 59.904-16.077 4.403-48.845 14.746-82.432 19.661-95.642l-21.197-78.848-3.686-13.107 10.24-10.24s65.434-60.621 179.61-60.621 179.61 60.621 179.61 60.621l10.24 10.24-3.686 13.107-21.197 78.131c4.198 11.366 15.155 45.773 19.661 96.358 25.088 2.56 45.466 8.909 59.904 16.077 18.33 9.114 29.184 20.48 29.184 20.48l6.554 6.554v9.523c0 50.381-21.811 88.064-37.99 108.749 2.253 2.15 4.301 4.506 6.554 6.554l13.824 12.39-8.806 16.077s-43.827 78.234-140.186 82.534l-28.467 18.944-5.837 4.403h-23.347l-6.554-12.39s-19.968-34.304-49.664-34.304-49.664 34.304-49.664 34.304l-6.554 12.39h-23.347zM436.122 638.464c13.312-17.51 35.021-39.424 75.878-39.424s62.669 21.914 75.878 39.424l2.97-2.15c-0.717-4.198 1.024-6.144-5.837-17.51-9.728-16.282-31.744-37.376-73.011-56.218-41.267 18.739-63.283 39.936-73.011 56.218-6.861 11.469-5.12 13.312-5.837 17.51l2.97 2.15zM385.024 620.954c0.717 0 1.536 0 2.15 0 2.355-7.987 5.939-16.691 11.674-26.317 8.090-13.517 19.866-28.058 37.274-42.291-7.987-15.872-19.661-26.214-33.587-33.587-14.438-7.68-29.389-8.909-42.291-10.24-13.005 24.166-30.618 46.899-51.098 67.891 9.011 13.21 29.696 38.4 75.878 44.544zM636.928 620.954c47.718-5.632 69.018-31.13 78.131-44.544-20.48-20.992-38.093-43.725-51.098-67.891-13.005 1.331-27.955 2.56-42.291 10.24-13.926 7.373-25.6 17.715-33.587 33.587 17.408 14.234 29.184 28.877 37.274 42.291 5.734 9.523 9.318 18.33 11.674 26.317zM475.546 526.848c8.602-4.506 17.613-9.011 27.75-13.107l8.806-2.97 8.806 2.97c10.138 4.096 19.149 8.602 27.75 13.107 12.902-22.528 31.744-38.605 51.098-48.947 17.203-9.114 34.509-14.234 50.381-16.794 8.602-79.565-15.258-143.36-18.227-151.142-5.734-4.915-44.851-37.99-119.706-37.99s-115.712 34.611-120.422 38.707c-3.174 7.782-26.931 69.12-17.51 150.426 15.872 2.56 33.075 7.68 50.381 16.794 19.354 10.24 38.195 26.317 51.098 48.947zM301.875 515.891c10.752-14.438 19.354-29.082 25.6-43.11l0.717-2.15c-1.434-11.162-2.56-22.221-2.97-32.87-15.565 2.458-27.853 6.656-36.454 10.957-6.656 3.277-6.144 3.891-8.806 5.837 2.56 26.931 12.8 47.514 21.914 61.338zM722.33 515.891c9.114-13.722 19.251-34.406 21.914-61.338-2.56-1.946-2.15-2.56-8.806-5.837-8.806-4.403-21.299-8.499-37.274-10.957-0.307 10.445-1.638 21.197-2.97 32.154l1.434 2.97c6.246 14.029 14.848 28.672 25.6 43.11zM385.741 258.15c26.624-14.95 69.734-32.87 126.259-32.87s99.635 17.92 126.259 32.87l10.24-38.707c-12.493-10.342-52.941-40.858-136.499-40.858s-124.109 30.515-136.499 40.858l10.24 38.707z" />
<glyph unicode="&#xe913;" glyph-name="necklace" d="M602.829 415.437v0c10.752-11.571 26.112-18.739 43.008-18.739 32.358 0 58.573 26.214 58.573 58.573 0 4.198-0.41 8.192-1.229 12.186 2.15 1.638 4.301 3.379 6.451 5.12 16.794 13.722 32.051 29.184 45.568 46.080 3.277-0.512 6.554-0.819 9.933-0.819 32.358 0 58.573 26.214 58.573 58.573 0 15.462-5.939 29.491-15.667 39.936 3.789 11.469 6.861 23.245 9.216 35.328 2.15 10.445-4.71 20.685-15.258 22.733-10.445 2.15-20.685-4.71-22.733-15.258-1.638-8.397-3.686-16.589-6.144-24.678-2.56 0.307-5.12 0.512-7.782 0.512-32.358 0-58.573-26.214-58.573-58.573 0-14.643 5.427-28.16 14.336-38.4-10.854-12.902-22.835-24.781-35.84-35.43-0.717-0.614-1.536-1.229-2.253-1.843-10.035 8.192-22.835 13.107-36.864 13.107-32.358 0-58.573-26.214-58.573-58.573 0-1.331 0-2.56 0-3.789-15.974-4.608-32.666-7.68-49.766-9.216-16.998-1.126-33.894-0.819-50.586 0.205-17.101 1.638-33.792 4.915-49.869 9.626-0.307-5.837 0 1.434 0 3.072 0 32.358-26.214 58.573-58.573 58.573-13.414 0-25.805-4.506-35.738-12.186v0c-13.926 11.264-26.726 23.962-38.195 37.683v0c8.294 10.138 13.21 22.938 13.21 37.069 0 32.358-26.214 58.573-58.573 58.573-1.843 0-3.789 0-5.632-0.205v0c-3.482 11.981-6.349 24.166-8.192 36.762-1.536 10.65-11.469 17.92-22.016 16.384-10.65-1.638-17.92-11.469-16.384-22.016 2.355-16.384 6.144-32.358 11.059-47.718-10.854-10.547-17.51-25.395-17.51-41.677 0-32.358 26.214-58.573 58.675-58.573 3.994 0 7.987 0.41 11.878 1.229 14.848-18.534 31.744-35.328 50.381-50.074-1.126-4.403-1.638-9.011-1.638-13.722 0-32.358 26.214-58.573 58.573-58.573 17.51 0 33.28 7.68 44.032 19.968l-0.512-0.614c9.933-3.072 20.173-5.734 30.618-7.782l-106.189-106.189 165.478-165.478 165.478 165.478-105.779 105.677c10.547 2.048 20.787 4.506 30.822 7.578zM764.826 604.262c15.462 0 28.16-12.595 28.16-28.16s-12.595-28.16-28.16-28.16-28.16 12.595-28.16 28.16 12.595 28.16 28.16 28.16v0zM259.174 604.262c15.462 0 28.16-12.595 28.16-28.16s-12.595-28.16-28.16-28.16c-15.462 0-28.16 12.595-28.16 28.16s12.595 28.058 28.16 28.058v0zM378.47 483.226c15.462 0 28.16-12.595 28.16-28.16s-12.595-28.16-28.16-28.16-28.16 12.595-28.16 28.16c0 15.565 12.595 28.16 28.16 28.16v0zM645.632 483.226c15.462 0 28.16-12.595 28.16-28.16s-12.595-28.16-28.16-28.16-28.16 12.595-28.16 28.16c0 15.565 12.595 28.16 28.16 28.16v0zM512 335.36c18.432 0 33.28-14.848 33.28-33.28s-14.848-33.28-33.28-33.28-33.28 14.848-33.28 33.28 14.848 33.28 33.28 33.28v0zM416.973 302.080l95.027 95.027 95.027-95.027-95.027-95.027-95.027 95.027z" />
<glyph unicode="&#xe914;" glyph-name="glove" d="M517.837 730.624c-28.877 0-52.941-20.992-60.109-48.742-7.373 3.174-15.155 5.427-23.552 5.427-34.406 0-62.771-29.389-62.771-64.922v-167.834l-18.33 18.944c-24.371 25.19-64.614 25.19-88.883 0s-24.371-66.867 0-92.058l122.266-125.85-14.336-58.88-0.614-2.662v-26.419h20.89c76.698 0 146.432-40.653 146.432-40.653l10.445-6.042 10.445 6.042s70.554 40.653 146.432 40.653h20.89v26.419l-0.614 2.662-12.39 50.79c20.173 25.907 33.997 57.549 33.997 93.389v216.576c0 35.635-28.365 64.922-62.771 64.922-7.373 0-14.336-1.536-20.89-4.096v4.096c0 35.635-28.365 64.922-62.771 64.922-8.397 0-16.179-2.253-23.552-5.427-7.168 27.75-31.232 48.742-60.109 48.742zM517.837 687.309c11.776 0 20.89-9.421 20.89-21.606h-20.89v-43.315h20.89v-43.315h-20.89v-43.315h20.89v-43.315h-20.89v-43.315h62.771v173.261c0 12.186 9.114 21.606 20.89 21.606s20.89-9.421 20.89-21.606v-43.315h-20.89v-43.315h20.89v-43.315h-20.89v-43.315h62.771v108.237c0 12.186 9.114 21.606 20.89 21.606s20.89-9.421 20.89-21.606h-20.89v-43.315h20.89v-21.606h-20.89v-43.315h20.89v-21.606c-11.571 0-20.89-9.728-20.89-21.606s9.318-21.606 20.89-21.606v-43.315c0-29.286-11.264-55.603-29.389-75.162l-7.885-8.806 2.662-11.469 9.114-37.171c-69.12-6.554-119.194-31.744-131.379-38.605-12.288 6.861-61.952 31.949-131.379 38.605l11.776 48.742 3.277 12.186-8.499 8.806-130.765 134.042c-8.294 8.602-8.294 22.528 0 31.13s21.709 8.602 30.106 0l1.331-2.048 88.269-91.341v272.691c0 12.186 9.114 21.606 20.89 21.606s20.89-9.421 20.89-21.606v-43.315h-20.89v-43.315h20.89v-43.315h-20.89v-43.315h62.771v216.576c0 12.186 9.114 21.606 20.89 21.606zM455.168 427.52c-11.571 0-20.89-9.728-20.89-21.606s9.318-21.606 20.89-21.606 20.89 9.728 20.89 21.606-9.318 21.606-20.89 21.606zM538.829 427.52c-11.571 0-20.89-9.728-20.89-21.606s9.318-21.606 20.89-21.606 20.89 9.728 20.89 21.606-9.318 21.606-20.89 21.606zM622.49 427.52c-11.571 0-20.89-9.728-20.89-21.606s9.318-21.606 20.89-21.606 20.89 9.728 20.89 21.606-9.318 21.606-20.89 21.606z" />
<glyph unicode="&#xe915;" d="M502.067 209.613l-186.47 373.248 186.47 146.637 186.47-146.637-186.47-373.248zM392.909 565.555l109.158-218.419 109.158 218.419-109.158 85.811-109.158-85.811z" />
<glyph unicode="&#xe916;" d="M665.907 298.701c1.741-5.427 2.765-11.059 2.765-16.794 0-52.429-73.626-94.822-164.454-94.822s-164.454 42.496-164.454 94.822c0 5.632 1.024 11.059 2.662 16.384-19.354-17.306-30.618-37.99-30.618-60.109 0-61.44 86.221-111.206 192.614-111.206s192.614 49.766 192.614 111.206c0 22.323-11.469 43.11-31.027 60.518z" />
<glyph unicode="&#xe917;" d="M502.067 506.778l-36.147 72.294 36.147 28.467 36.045-28.467-36.045-72.294z" />
<glyph unicode="&#xe918;" d="M631.501 465.306c-104.038 104.038-237.158 247.398-237.158 247.398l-150.221 2.662 2.048-150.835 283.238-283.238s121.446 71.373 102.093 184.013zM645.734 240.435l91.648-91.648 72.704 72.704-116.326 116.326zM564.838 472.474c25.293-25.293-6.963-71.578-6.963-71.578l-270.848 270.95 92.467-4.915s168.55-177.562 185.446-194.458z" />
<glyph unicode="&#xe919;" d="M670.822 569.958v-143.872c0-102.81-123.29-180.429-159.846-203.264-10.957 6.144-29.798 17.51-50.79 33.178-48.742 36.557-109.056 96.563-109.056 169.984h-68.506c0-164.966 208.077-271.462 218.214-276.582 2.56-2.56 5.12-2.56 10.138-2.56s7.578 0 10.138 2.56c10.138 5.12 218.214 111.616 218.214 276.582v177.664c0 10.138-7.578 20.275-15.258 22.835v0s-215.654 109.363-220.774 106.803z" />
<glyph unicode="&#xe91a;" d="M711.475 127.795l-191.898 204.39-200.602-201.933v565.862h161.69v-138.138h69.427v138.138h161.382v-568.32zM380.416 634.675v-355.328l140.39 141.312 129.229-137.626v351.642h-38.502v-138.138h-192.307v138.138h-38.81z" />
<glyph unicode="&#xe91b;" d="M194.97 695.603h102.093v-85.709h-102.093v85.709z" />
<glyph unicode="&#xe91c;" d="M867.123 559.923s-31.232 47.002-68.096 47.002h-61.952v85.709h58.266c50.483 0 71.782 47.002 71.782 47.002v-179.61z" />
<glyph unicode="&#xe91d;" glyph-name="calendar" d="M481.075 440.32c0-13.743-11.141-24.883-24.883-24.883s-24.883 11.141-24.883 24.883c0 13.743 11.141 24.883 24.883 24.883s24.883-11.141 24.883-24.883zM572.416 440.32c0-13.799-11.186-24.986-24.986-24.986s-24.986 11.186-24.986 24.986c0 13.799 11.186 24.986 24.986 24.986s24.986-11.186 24.986-24.986zM663.757 440.32c0-13.799-11.186-24.986-24.986-24.986s-24.986 11.186-24.986 24.986c0 13.799 11.186 24.986 24.986 24.986s24.986-11.186 24.986-24.986zM389.734 359.834c0-13.743-11.141-24.883-24.883-24.883s-24.883 11.141-24.883 24.883c0 13.743 11.141 24.883 24.883 24.883s24.883-11.141 24.883-24.883zM481.075 359.834c0-13.743-11.141-24.883-24.883-24.883s-24.883 11.141-24.883 24.883c0 13.743 11.141 24.883 24.883 24.883s24.883-11.141 24.883-24.883zM572.416 359.834c0-13.799-11.186-24.986-24.986-24.986s-24.986 11.186-24.986 24.986c0 13.799 11.186 24.986 24.986 24.986s24.986-11.186 24.986-24.986zM663.757 359.834c0-13.799-11.186-24.986-24.986-24.986s-24.986 11.186-24.986 24.986c0 13.799 11.186 24.986 24.986 24.986s24.986-11.186 24.986-24.986zM389.734 279.45c0-13.743-11.141-24.883-24.883-24.883s-24.883 11.141-24.883 24.883c0 13.743 11.141 24.883 24.883 24.883s24.883-11.141 24.883-24.883zM481.075 279.45c0-13.743-11.141-24.883-24.883-24.883s-24.883 11.141-24.883 24.883c0 13.743 11.141 24.883 24.883 24.883s24.883-11.141 24.883-24.883zM572.416 279.45c0-13.799-11.186-24.986-24.986-24.986s-24.986 11.186-24.986 24.986c0 13.799 11.186 24.986 24.986 24.986s24.986-11.186 24.986-24.986zM663.757 279.45c0-13.799-11.186-24.986-24.986-24.986s-24.986 11.186-24.986 24.986c0 13.799 11.186 24.986 24.986 24.986s24.986-11.186 24.986-24.986zM754.79 629.248c-3.379 7.987-8.192 15.155-14.336 21.197-6.144 6.144-13.312 10.957-21.197 14.336-8.294 3.482-16.998 5.222-26.010 5.222h-40.755c-2.15 15.974-15.872 28.365-32.461 28.365h-0.614c-16.589 0-30.31-12.39-32.461-28.365h-157.901c-2.15 15.974-15.872 28.365-32.461 28.365h-0.614c-16.589 0-30.31-12.39-32.461-28.365h-44.544c-9.011 0-17.715-1.741-26.010-5.222-7.987-3.379-15.053-8.192-21.197-14.336s-10.957-13.312-14.336-21.197c-3.482-8.294-5.222-16.998-5.222-26.010v-372.531c0-9.011 1.741-17.818 5.222-26.010 3.379-7.987 8.192-15.155 14.336-21.197 6.144-6.144 13.312-10.957 21.197-14.336 8.294-3.482 16.998-5.222 26.010-5.222h374.272c9.011 0 17.715 1.741 26.010 5.222 7.987 3.379 15.053 8.192 21.197 14.336s10.957 13.312 14.336 21.197c3.482 8.294 5.222 16.998 5.222 26.010v372.531c0 9.011-1.741 17.818-5.222 26.010zM318.874 615.936h44.237c1.024-17.203 15.258-30.822 32.666-30.822h0.614c17.408 0 31.642 13.619 32.666 30.822h157.491c1.024-17.203 15.258-30.822 32.666-30.822h0.614c17.408 0 31.642 13.619 32.666 30.822h40.55c6.963 0 12.698-5.734 12.698-12.698v-50.381h-399.565v50.381c0 7.066 5.734 12.698 12.698 12.698zM693.248 218.010h-374.374c-6.963 0-12.698 5.734-12.698 12.698v268.083h399.77v-268.083c0-7.066-5.734-12.698-12.698-12.698z" />
<glyph unicode="&#xe91e;" glyph-name="tower" d="M548.147 457.728h-94.618c-11.366 0-20.378-10.445-20.378-23.45v-70.554c0-13.005 9.114-23.45 20.378-23.45h94.618c11.366 0 20.378 10.445 20.378 23.45v70.554c0 13.005-9.114 23.45-20.378 23.45zM527.667 387.379h-53.76v23.45h53.76v-23.45zM666.317 739.328h-61.338c-11.366 0-20.378-10.445-20.378-23.45v-22.63h-20.378v22.63c0 13.005-9.114 23.45-20.378 23.45h-84.173c-11.366 0-20.378-10.445-20.378-23.45v-22.426h-20.378s0 22.426 0 22.426c0 13.005-9.114 23.45-20.378 23.45h-61.338c-11.366 0-20.378-10.445-20.378-23.45v-140.8c0-4.608 1.229-9.216 3.482-13.005l37.478-64.512v-344.986c0-13.005 9.114-23.45 20.378-23.45h247.398c11.366 0 20.378 10.445 20.378 23.45v344.986l37.478 64.512c2.253 3.789 3.482 8.397 3.482 13.005v140.8c0 13.005-9.114 23.45-20.378 23.45zM482.406 176.026v70.554c0 12.39 8.499 22.63 19.251 23.347 10.752-0.717 19.251-10.957 19.251-23.347v-70.554h-38.502zM564.531 176.026v70.554c0 38.912-27.546 70.554-61.338 70.554-0.512 0-1.024 0-1.434 0-0.512 0-1.024 0-1.434 0-33.792 0-61.338-31.642-61.338-70.554v-70.554h-40.448v305.050h206.541v-305.050h-40.448zM614.502 528.179h-225.792l-13.619 23.45h252.928l-13.619-23.45zM645.939 598.528h-288.563v93.901h20.582v-23.45c0-13.005 9.114-23.45 20.378-23.45h11.981v-0.307s51.814 0.307 51.814 0.307c11.366 0 20.378 10.445 20.378 23.45v23.45h38.195v-23.45c0-13.005 9.114-23.45 20.378-23.45l51.814-0.307v0.307h11.981c11.366 0 20.378 10.445 20.378 23.45v23.45h20.582v-93.901z" />
<glyph unicode="&#xe91f;" glyph-name="dungeon" d="M366.592 289.485h-85.914c-5.427 0-9.83-5.427-9.83-12.083v-114.995c0-6.554 4.403-11.981 9.83-11.981h85.914c5.427 0 9.626 5.325 9.626 11.981v114.995c0 6.554-4.198 12.083-9.626 12.083zM292.147 302.49h62.874c5.427 0 9.626 4.915 9.626 11.469v82.125c0 6.554-4.301 11.674-9.626 11.674h-62.874c-5.427 0-9.83-5.12-9.83-11.674v-82.125c0-6.554 4.403-11.469 9.83-11.469zM292.147 420.762h62.874c5.427 0 9.626 5.222 9.626 11.878v49.971c0 6.554-4.301 12.186-9.626 12.186h-62.874c-5.427 0-9.83-5.632-9.83-12.186v-49.971c0-6.554 4.403-11.878 9.83-11.878zM761.344 289.485h-85.914c-5.427 0-9.626-5.427-9.626-12.083v-114.995c0-6.554 4.198-11.981 9.626-11.981h85.914c5.427 0 9.83 5.325 9.83 11.981v114.995c0 6.554-4.403 12.083-9.83 12.083zM749.773 407.757h-62.874c-5.427 0-9.626-5.12-9.626-11.674v-82.125c0-6.554 4.301-11.469 9.626-11.469h62.874c5.427 0 9.83 4.915 9.83 11.469v82.125c0 6.554-4.403 11.674-9.83 11.674zM677.274 482.611v-49.971c0-6.554 4.301-11.878 9.626-11.878h62.874c5.427 0 9.83 5.222 9.83 11.878v49.971c0 6.554-4.403 12.186-9.83 12.186h-62.874c-5.427 0-9.626-5.632-9.626-12.186zM625.562 583.475c2.97 5.12 37.069 65.741 37.069 65.741 2.15 6.042-0.205 13.107-5.222 15.667 0 0-41.165 23.859-48.845 27.648-9.114 4.608-12.698 3.174-16.691-10.035-3.686-11.878-15.77-64-16.896-69.53-1.536-7.475 0.922-12.902 5.939-15.462l31.744-20.275c5.018-2.56 9.83 1.229 12.8 6.349zM573.952 709.12s-39.117 4.915-74.035 2.458c-34.918-2.56-79.053-22.426-79.053-22.426-5.222-1.843-8.806-9.216-5.12-18.33 0 0 25.293-60.621 27.75-66.253s7.475-10.957 14.336-8.090c11.059 4.506 23.859 10.24 45.466 13.21 20.992 2.867 50.381-3.072 50.381-3.072 5.837 0.512 9.318 3.994 11.059 11.571l18.842 74.547c2.458 9.318-3.277 15.872-9.728 16.384zM633.958 557.466s19.661-25.6 27.75-45.363c2.97-5.632 9.83-5.837 13.926-5.632 4.198 0.307 50.688 0 61.542 0s12.595 13.619 9.626 22.835c0 0 0 0 0 0-13.107 70.144-64 109.773-64 109.773s0 0 0 0c-5.222 4.403-8.909 2.97-15.155-5.939-6.758-9.728-32.461-53.862-35.021-58.675-3.584-6.451-2.56-12.595 1.434-16.998zM293.376 527.667v0 0 0zM303.514 506.675c10.854 0 57.344 0.205 61.542 0 4.198-0.307 10.957 0 13.926 5.53 0 0 23.654 43.315 49.869 67.789 6.042 4.813 7.373 12.902 5.939 18.227-1.434 5.427-21.402 51.61-26.726 62.566-5.427 10.957-9.83 12.493-16.179 9.318v0s-35.43-17.203-59.802-52.634c-24.986-36.454-37.581-86.733-37.581-86.733-0.41-1.024-0.717-1.843-1.024-2.97 0 0 0 0 0 0-2.15-8.909 0.512-20.992 10.138-20.992zM625.869 394.957c5.632-11.059 19.251-92.774 38.707-92.774v105.574h-37.683s-6.758-1.741-1.024-12.8zM447.386 453.222s10.65 21.811 10.24 33.792c-0.41 11.981 0 24.883 5.222 23.757 0 0-8.602 3.072-12.595-8.704 0 0 2.765 51.507-14.029 56.832-0.614-35.226-17.715-41.267-17.715-41.267s7.475 19.251-5.12 23.654c0 0 1.126-17.92-17.92-25.19-18.637-7.168-35.43-33.485-31.642-54.477 0 0-4.506 0.307-6.042 8.704 0 0-7.987-30.413 30.413-48.333-5.427 5.734-11.059 17.51-10.547 32.461 0.41 14.848 6.554 28.877 26.522 37.376 17.101 7.168 28.979 8.806 31.232 19.558 0 0 2.355-17.408-6.144-35.021 0 0 8.602 2.355 13.107 7.68 0 0-2.458-31.437-19.968-43.008 0 0 8.909-1.331 12.083-1.024 0 0-10.752-23.859-33.997-22.733 45.67-13.21 59.085 43.52 57.344 51.2 0 0-2.355-9.626-10.445-15.36zM414.822 407.757h-37.478v-105.574c18.33 0 32.973 81.715 38.605 92.774s-1.229 12.8-1.229 12.8zM592.998 453.222s-10.65 21.811-10.24 33.792c0.41 11.981 0 24.883-5.222 23.757 0 0 8.602 3.072 12.595-8.704 0 0-2.765 51.507 14.029 56.832 0.614-35.226 17.715-41.267 17.715-41.267s-7.475 19.251 5.12 23.654c0 0-1.126-17.92 17.92-25.19 18.637-7.168 35.43-33.485 31.642-54.477 0 0 4.506 0.307 6.042 8.704 0 0 7.987-30.413-30.413-48.333 5.427 5.734 11.059 17.51 10.547 32.461-0.41 14.848-6.554 28.877-26.522 37.376-17.101 7.168-28.979 8.806-31.232 19.558 0 0-2.355-17.408 6.144-35.021 0 0-8.602 2.355-13.107 7.68 0 0 2.458-31.437 19.968-43.008 0 0-8.909-1.331-12.083-1.024 0 0 10.752-23.859 33.997-22.733-45.67-13.21-59.085 43.52-57.344 51.2 0 0 2.355-9.626 10.445-15.36z" />
<glyph unicode="&#xe920;" glyph-name="castle" d="M606.925 643.994v-90.214h-17.51v-109.363h63.181v41.984h-13.107v67.379h27.341v-27.648h25.805v27.648h27.341v-27.648h25.805v27.443h27.443v-67.379h-13.107v-258.048h-210.637v94.413c0 18.637-14.336 33.792-31.642 33.792s-31.642-15.258-31.642-33.792v-94.413h-209.715v258.253h-13.107v67.379h27.341v-27.648h25.805v27.648h27.136v-27.648h25.907v27.648h27.341v-67.379h-13.107v-41.984h62.157v109.363h-17.51v90.214h36.454v-37.171h34.509v37.171h36.659v-37.171h34.714v37.171h36.454zM606.925 705.434h-36.454c-6.042 0-11.878-0.819-17.306-2.458-5.53 1.638-11.366 2.458-17.306 2.458h-36.659c-6.042 0-11.776-0.819-17.306-2.458-5.427 1.638-11.264 2.458-17.306 2.458h-36.454c-33.894 0-61.44-27.546-61.44-61.44v-28.877c-3.482-0.102-6.963-0.614-10.342-1.331-4.198 0.922-8.499 1.331-13.005 1.331h-27.136c-4.403 0-8.704-0.512-12.902-1.331-4.198 0.922-8.499 1.331-12.902 1.331h-27.341c-33.894 0-61.44-27.546-61.44-61.44v-67.379c0-14.336 4.915-27.546 13.107-37.99v-220.262c0-33.894 27.546-61.44 61.44-61.44h209.715c11.571 0 22.426 3.174 31.642 8.806 9.216-5.53 20.070-8.806 31.642-8.806h210.637c33.894 0 61.44 27.546 61.44 61.44v220.16c8.192 10.445 13.107 23.654 13.107 37.99v67.379c0 33.894-27.546 61.44-61.44 61.44h-24.269c-1.024 0-2.15 0-3.174 0-4.403 0-8.602-0.41-12.698-1.331-4.198 0.922-8.602 1.434-13.107 1.434h-27.341c-4.403 0-8.704-0.512-12.902-1.331-3.686 0.819-7.475 1.229-11.264 1.331v28.877c0 33.894-27.546 61.44-61.44 61.44v0z" />
<glyph unicode="&#xe921;" glyph-name="lock" d="M633.139 502.272v115.405c0 66.97-54.272 121.242-121.242 121.242s-121.242-54.272-121.242-121.242v-115.405c-44.339-35.533-72.704-90.010-72.704-151.245 0-107.11 86.835-193.946 193.946-193.946s193.946 86.835 193.946 193.946c0 61.235-28.467 115.712-72.704 151.245zM439.194 617.677c0 40.141 32.666 72.704 72.704 72.704s72.704-32.666 72.704-72.704v-86.938c-22.426 9.114-47.002 14.234-72.704 14.234s-50.278-5.12-72.704-14.234v86.938zM511.898 205.517c-80.179 0-145.51 65.229-145.51 145.51s65.229 145.51 145.51 145.51 145.51-65.229 145.51-145.51-65.229-145.51-145.51-145.51zM560.435 351.027c0-26.726-21.709-48.538-48.538-48.538s-48.538 21.709-48.538 48.538 21.709 48.538 48.538 48.538 48.538-21.709 48.538-48.538zM511.898 151.962c-109.773 0-199.066 89.293-199.066 199.066 0 59.802 26.522 115.61 72.704 153.702v112.947c0 69.632 56.73 126.362 126.362 126.362s126.362-56.73 126.362-126.362v-112.947c46.285-37.99 72.704-93.901 72.704-153.702 0-109.773-89.293-199.066-199.066-199.066zM511.898 733.798c-64 0-116.122-52.122-116.122-116.122v-117.862l-1.946-1.536c-44.954-36.147-70.861-89.805-70.861-147.251 0-104.141 84.685-188.826 188.826-188.826s188.826 84.685 188.826 188.826c0 57.446-25.805 111.206-70.861 147.251l-1.946 1.536v117.862c0 64-52.122 116.122-116.122 116.122zM511.898 200.397c-83.046 0-150.63 67.584-150.63 150.63s67.584 150.63 150.63 150.63 150.63-67.584 150.63-150.63-67.584-150.63-150.63-150.63zM511.898 491.315c-77.414 0-140.39-62.976-140.39-140.39s62.976-140.39 140.39-140.39 140.39 62.976 140.39 140.39-62.976 140.39-140.39 140.39zM511.898 297.37c-29.594 0-53.555 24.064-53.555 53.658s24.064 53.658 53.555 53.658 53.658-24.064 53.658-53.658-24.064-53.658-53.658-53.658zM511.898 394.342c-23.859 0-43.315-19.456-43.315-43.418s19.456-43.418 43.315-43.418 43.418 19.456 43.418 43.418-19.456 43.418-43.418 43.418zM589.722 523.162l-7.066 2.867c-45.363 18.33-96.256 18.33-141.619 0l-7.066-2.867v94.618c0 42.906 34.918 77.824 77.824 77.824s77.824-34.918 77.824-77.824v-94.618zM511.898 550.093c23.142 0 45.875-3.994 67.584-11.878v79.565c0 37.274-30.31 67.584-67.584 67.584s-67.584-30.31-67.584-67.584v-79.565c21.709 7.885 44.442 11.878 67.584 11.878z" />
<glyph unicode="&#xe922;" glyph-name="level" d="M455.68 397.312s-7.578 61.133-6.451 85.709l-45.363 10.65c-21.606 4.403-23.757 20.992-23.859 26.010-0.614 21.504 19.661 26.726 30.515 29.594 2.662 0.717 7.578 1.946 11.674 3.277v39.014l75.674-25.293 75.878 25.19v-39.014c4.096-1.331 9.011-2.56 11.674-3.277 10.854-2.867 31.027-8.090 30.515-29.594-0.102-5.018-2.253-21.606-24.576-26.112l-49.664-11.674c0-25.498-9.933-86.221-9.933-86.221l-38.4 90.112-37.581-88.474zM617.165 426.906c0 21.504 3.686 35.942 12.288 48.538 14.95 21.709 22.221 43.008 21.811 63.386v2.765c0 109.261-74.138 133.837-128.307 151.654-10.24 3.379-19.149 6.349-26.931 9.626-7.68-3.379-16.486-6.451-26.624-10.035-54.272-18.944-128.717-44.954-128.717-150.733v-3.379c-0.512-20.275 6.861-41.574 21.709-63.283 8.602-12.493 12.288-27.034 12.288-48.538 0-18.125-62.669-133.325-62.669-133.325h-24.474s24.269 78.131 27.955 89.293c6.554 20.070 8.090 31.846 8.090 43.93 0 14.746-2.355 18.227-3.277 19.456-21.094 30.72-31.437 62.157-30.822 93.491v2.867c0 141.619 106.086 178.586 163.123 198.451 10.854 3.789 24.269 8.499 28.058 11.264l15.258 11.366 15.258-11.366c3.584-2.662 16.998-7.066 27.75-10.65 57.037-18.842 163.328-53.965 163.328-199.68v-2.15c0.717-31.334-9.626-62.771-30.72-93.491-0.819-1.229-3.277-4.71-3.277-19.456 0-19.456 30.515-130.867 30.515-130.867l-26.624-0.717s-55.194 117.965-55.194 131.584zM493.261 430.080l32.563-100.147h105.267l-85.197-61.85 32.563-100.147-85.197 61.85-85.197-61.85 32.563 100.147-85.197 61.85h105.37l32.461 100.147zM348.058 322.56l13.824-42.598h44.749l-36.147-26.317 13.824-42.598-36.25 26.317-36.25-26.317 13.824 42.598-36.25 26.317h44.851l13.824 42.598zM637.952 322.56l13.926-42.598h44.749l-36.25-26.317 13.824-42.598-36.25 26.317-36.147-26.317 13.824 42.598-36.25 26.317h44.749l13.824 42.598z" />
</font>
</defs>
</svg>
